<?xml version="1.0" encoding="utf-8"?>
<!-- Generator: Adobe Illustrator 26.0.0, SVG Export Plug-In . SVG Version: 6.00 Build 0)  -->
<svg version="1.1" id="Amimoto_x5F_Primary" xmlns="http://www.w3.org/2000/svg" xmlns:xlink="http://www.w3.org/1999/xlink"
	 x="0px" y="0px" viewBox="0 0 70.01 70.49" style="enable-background:new 0 0 70.01 70.49;" xml:space="preserve">
<style type="text/css">
	.st0{fill-rule:evenodd;clip-rule:evenodd;fill:#00A8FF;}
	.st1{fill-rule:evenodd;clip-rule:evenodd;fill:#0055FF;}
	.st2{fill-rule:evenodd;clip-rule:evenodd;fill:#004CD3;}
</style>
<g id="Logomark">
	<path id="Logomark_7_" class="st0" d="M19.7,48.94c-2.95,7.07-2.96,7.09-5.84,14.3c-4.74-4.08-5.98-5.52-8.95-9.99
		C11.87,51.27,11.87,51.26,19.7,48.94z"/>
	<path id="Logomark_6_" class="st0" d="M29.82,23.87c-4.63,11.35-4.63,11.36-8.56,20.96c-9.11,2.58-9.12,2.57-17.91,5.09
		c-2.85-5.02-3.86-14.43-3.11-17.63C13.26,28.65,13.31,28.64,29.82,23.87z"/>
	<path id="Logomark_5_" class="st0" d="M25.34,1.33c-5.01,12.11-5.01,12.13-9.54,22.92c-7.39,2.01-7.39,2.04-15.18,4.31
		C3.58,16.05,10.65,5.84,25.34,1.33z"/>
	<path id="Logomark_4_" class="st1" d="M29.43,0.35C39.9-1.1,52.28,1.79,60.96,11.52c-20.6,5.72-20.6,5.71-41.07,11.56
		C25.21,10.1,25.22,10.11,29.43,0.35z"/>
	<path id="Logomark_3_" class="st1" d="M34.1,22.69c9.83-2.84,9.8-2.92,21.02-6.07C44.66,42.04,44.67,42.04,33.13,70.3
		c-5.43-0.35-10.64-1.51-16.35-5.09C26.13,42.54,26.14,42.53,34.1,22.69z"/>
	<path id="Logomark_2_" class="st2" d="M60.96,11.52c7.67,8.85,9.54,18.99,8.95,27.04c-10.75,3.05-10.75,3.05-22.58,6.47
		C53.3,30.42,53.31,30.42,60.96,11.52z"/>
	<path id="Logomark_1_" class="st2" d="M69.33,42.28c-2.41,13.4-14.87,27.04-32.5,28.21c4.68-11.26,4.68-11.34,8.95-21.55
		C56.89,45.85,56.89,45.85,69.33,42.28z"/>
</g>
</svg>
