<svg width="99" height="33" viewBox="0 0 99 33" fill="none" xmlns="http://www.w3.org/2000/svg">
<path d="M36.5885 26.7399C36.5885 27.7103 36.861 28.465 37.4288 28.9826C37.9966 29.5001 38.7234 29.7589 39.6318 29.7589C39.9952 29.7589 40.3359 29.7157 40.6311 29.6079C40.9491 29.5001 41.2216 29.3491 41.4487 29.1551C41.6759 28.961 41.8576 28.7238 41.9938 28.465C42.1301 28.2062 42.1982 27.8828 42.1982 27.5593C42.1982 27.1712 42.1301 26.8477 41.9711 26.6105C41.8121 26.3517 41.6077 26.1361 41.3579 25.9636C41.1081 25.791 40.8355 25.6401 40.563 25.5107C40.2677 25.3813 39.9952 25.2951 39.7227 25.2088C38.9959 24.9716 38.3373 24.7128 37.7013 24.4756C37.0654 24.2384 36.5203 23.9365 36.0661 23.5915C35.5891 23.2465 35.2258 22.8152 34.9532 22.3192C34.6807 21.8232 34.5444 21.1979 34.5444 20.4431C34.5444 19.8393 34.6807 19.2786 34.9305 18.7827C35.1803 18.2867 35.5437 17.8554 35.9752 17.4888C36.4068 17.1222 36.9291 16.8419 37.5196 16.6694C38.1101 16.4753 38.7234 16.389 39.382 16.389C40.0861 16.389 40.7447 16.4968 41.3579 16.734C41.9711 16.9713 42.4935 17.2732 42.9477 17.6829C43.402 18.0926 43.7426 18.5886 43.9925 19.1492C44.2423 19.7099 44.3785 20.3568 44.3785 21.0469H41.8121C41.8121 20.3137 41.6077 19.7099 41.1762 19.2571C40.7674 18.8042 40.1769 18.567 39.4501 18.567C38.8142 18.567 38.2464 18.718 37.7922 19.0414C37.3379 19.3433 37.0881 19.8177 37.0881 20.4647C37.0881 20.7666 37.1563 21.0253 37.2698 21.2625C37.4061 21.4998 37.5651 21.6938 37.7922 21.8663C38.0193 22.0389 38.2464 22.1898 38.5189 22.3192C38.7915 22.4486 39.064 22.5564 39.3593 22.6642C39.9725 22.8799 40.5857 23.0955 41.2216 23.3543C41.8576 23.5915 42.4254 23.8934 42.9477 24.2384C43.4701 24.5834 43.9016 25.0147 44.2196 25.5107C44.5375 26.0067 44.7192 26.6105 44.7192 27.3221C44.7192 28.0769 44.583 28.7669 44.2877 29.3491C44.0152 29.9314 43.6064 30.4274 43.1294 30.8155C42.6298 31.2037 42.062 31.5056 41.426 31.6997C40.7674 31.8937 40.0861 32.0016 39.3593 32.0016C38.6325 32.0016 37.9512 31.8937 37.3152 31.6565C36.6566 31.4193 36.0888 31.0743 35.6119 30.643C35.1122 30.1902 34.7261 29.651 34.4309 29.0041C34.1356 28.3572 33.9766 27.624 33.9766 26.783H36.5885V26.7399Z" fill="#2B2628"/>
<path d="M47.4446 16.7139H49.8748V23.0753C50.1928 22.5362 50.6697 22.1265 51.2375 21.8461C51.828 21.5658 52.4866 21.4364 53.2815 21.4364C54.0537 21.4364 54.6897 21.5658 55.1893 21.803C55.7117 22.0402 56.1205 22.3637 56.4157 22.7734C56.6656 23.14 56.8473 23.5497 56.9381 24.0026C57.029 24.4554 57.0744 25.0161 57.0744 25.7061V31.5932H54.6442V26.4825C54.6442 26.0512 54.5988 25.663 54.5307 25.2964C54.4625 24.9298 54.3263 24.6064 54.1673 24.3476C53.9856 24.0888 53.7585 23.8732 53.4632 23.7222C53.168 23.5713 52.8046 23.485 52.3731 23.485C51.5327 23.485 50.8968 23.7654 50.488 24.3476C50.0792 24.9298 49.8748 25.6415 49.8748 26.4825V31.5932H47.4446V16.7139Z" fill="#2B2628"/>
<path d="M59.5953 18.0724C59.5953 17.598 59.777 17.1883 60.1177 16.8432C60.4584 16.5198 60.8899 16.3473 61.3896 16.3473C61.8892 16.3473 62.3207 16.5198 62.6841 16.8432C63.0248 17.1667 63.2065 17.5764 63.2065 18.0724C63.2065 18.5468 63.0248 18.935 62.6841 19.28C62.3434 19.6035 61.9119 19.776 61.3896 19.776C60.8899 19.776 60.4811 19.6035 60.1177 19.28C59.777 18.9565 59.5953 18.5468 59.5953 18.0724ZM60.1858 21.6952H62.616V31.5932H60.1858V21.6952Z" fill="#2B2628"/>
<path d="M71.9959 18.8056C71.8369 18.7624 71.6552 18.7193 71.4735 18.6977C71.2919 18.6762 71.1102 18.6546 70.9058 18.6546C70.7014 18.6546 70.5197 18.6546 70.3153 18.6762C70.1108 18.6977 69.9519 18.7409 69.7929 18.8487C69.6339 18.9565 69.4976 19.1075 69.4068 19.3231C69.2932 19.5387 69.2478 19.8406 69.2478 20.2072V21.6952H71.4508V23.636H69.2705V31.6147H66.8404V23.636H65.0234V21.6952H66.8404V20.466C66.8404 19.5172 66.9766 18.784 67.2492 18.2665C67.5217 17.7489 67.8624 17.3608 68.2485 17.1235C68.6346 16.8863 69.0661 16.7354 69.4976 16.6707C69.9292 16.6276 70.2925 16.606 70.5878 16.606C70.9057 16.606 71.1783 16.6276 71.4281 16.6707C71.6779 16.7138 71.8596 16.7785 71.9959 16.8432V18.8056Z" fill="#2B2628"/>
<path d="M79.0138 31.5932C78.8094 31.6148 78.5595 31.6579 78.2189 31.6795C77.9009 31.701 77.5375 31.7226 77.1968 31.7226C76.9016 31.7226 76.5609 31.701 76.1748 31.6579C75.7887 31.6148 75.4253 31.4638 75.062 31.2482C74.7213 31.011 74.426 30.6659 74.1762 30.2131C73.9264 29.7387 73.8128 29.0917 73.8128 28.2507V23.636H72.2911V21.6952H73.8128V18.6978H76.243V21.6952H78.7639V23.636H76.243V27.7116C76.243 28.1429 76.2657 28.4664 76.3338 28.7251C76.4019 28.9839 76.4928 29.178 76.6291 29.3074C76.7653 29.4368 76.9243 29.523 77.106 29.5662C77.2877 29.6093 77.5148 29.6308 77.7419 29.6308C77.9463 29.6308 78.1507 29.6308 78.4233 29.6308C78.6731 29.6308 78.8548 29.6093 78.9911 29.5662V31.5932H79.0138Z" fill="#2B2628"/>
<path d="M82.148 27.345C82.1707 27.69 82.2388 28.0351 82.3524 28.337C82.466 28.6389 82.6249 28.9192 82.8294 29.1564C83.0565 29.3936 83.329 29.5661 83.6697 29.7171C84.0104 29.8465 84.4419 29.9112 84.9415 29.9112C85.6456 29.9112 86.1453 29.7818 86.4632 29.523C86.7812 29.2642 87.0083 28.9623 87.1673 28.6173H89.6201C89.552 29.0486 89.393 29.4583 89.1432 29.8465C88.8934 30.2346 88.5754 30.5797 88.1666 30.8816C87.7578 31.1835 87.3035 31.4207 86.7585 31.5932C86.2134 31.7657 85.6229 31.8519 84.9415 31.8519C84.0558 31.8519 83.3063 31.7226 82.6477 31.4422C81.989 31.1835 81.4667 30.7953 81.0351 30.3424C80.6036 29.868 80.2856 29.3289 80.0585 28.682C79.8314 28.0351 79.7406 27.3666 79.7406 26.6334C79.7406 25.9002 79.8541 25.2102 80.0812 24.5632C80.3084 23.9163 80.649 23.3772 81.0806 22.9028C81.5121 22.4284 82.0572 22.0618 82.6931 21.803C83.329 21.5442 84.0558 21.4148 84.8961 21.4148C85.5775 21.4148 86.1907 21.5227 86.7812 21.7599C87.3717 21.9971 87.894 22.299 88.3256 22.7087C88.7571 23.1184 89.0978 23.5928 89.3476 24.1319C89.5974 24.671 89.711 25.2533 89.711 25.9002C89.711 26.0727 89.711 26.2668 89.711 26.504C89.711 26.7412 89.6656 27.0216 89.6201 27.345H82.148ZM84.8053 23.1831C84.0331 23.1831 83.4199 23.3988 82.8975 23.8085C82.3978 24.2182 82.1253 24.822 82.1253 25.6414H87.3263C87.3263 24.8867 87.0991 24.2829 86.6222 23.8516C86.168 23.3988 85.5547 23.1831 84.8053 23.1831Z" fill="#2B2628"/>
<path d="M98.9773 23.8516C98.7729 23.8085 98.6139 23.7869 98.5004 23.7653C98.3641 23.7438 98.2051 23.7438 98.0234 23.7438C96.9787 23.7438 96.1838 24.0241 95.6387 24.6064C95.0936 25.1886 94.8211 26.0943 94.8211 27.345V31.6147H92.3909V21.7167H94.8211V23.3125C94.9346 23.0969 95.1163 22.8597 95.3207 22.6656C95.5478 22.4499 95.7977 22.2774 96.0929 22.1049C96.3882 21.9324 96.7061 21.8246 97.0241 21.7167C97.3648 21.6305 97.7055 21.5874 98.0461 21.5874C98.4322 21.5874 98.7502 21.6305 99 21.7383V23.8516H98.9773Z" fill="#2B2628"/>
<path d="M4.26978 23.9163H20.5994C20.5994 28.2076 16.9429 31.6794 12.4233 31.6794C7.90364 31.6794 4.26978 28.2076 4.26978 23.9163ZM18.669 8.23908V15.6572L26.1411 8.23908H18.669ZM15.0124 8.23908H9.87956V21.6736H15.0124V8.23908ZM7.6311 0.00153732H0V7.26869H7.6311V0.00153732ZM6.56366 12.7891C6.56366 11.3443 5.33723 10.1799 3.81555 10.1799C2.29387 10.1799 1.06745 11.3443 1.06745 12.7891C1.06745 14.2339 2.29387 15.3984 3.81555 15.3984C5.33723 15.3984 6.56366 14.2339 6.56366 12.7891Z" fill="#F80A5B"/>
</svg>
