<svg width="184" height="140" fill="none" xmlns="http://www.w3.org/2000/svg"><g clip-path="url(#clip0)"><path d="M165.497 57.11H0v58.301h165.497v-58.3z" fill="#EBE4ED"/><path d="M180.046 3.966H28.545v95.422h151.501V3.966z" fill="#E2C9E1"/><path d="M176.093 7.932v87.49H32.499V7.932h143.594zM184 0H24.591v103.354H184V0z" fill="#F80A5B"/><path d="M137.822 129.768H73.616V140h64.206v-10.232z" fill="#E2C9E1"/><path d="M152.688 54.652c-24.513 30.697-64.286 30.697-88.798 0 24.512-30.618 64.285-30.618 88.798 0z" fill="#EDECEC"/><path d="M108.17 67.58c7.206 0 13.047-5.859 13.047-13.087s-5.841-13.088-13.047-13.088c-7.205 0-13.047 5.86-13.047 13.088 0 7.228 5.842 13.088 13.047 13.088zM118.449 102.958H93.542v26.81h24.907v-26.81z" fill="#F80A5B"/><path d="M165.497 57.11H0v58.301h165.497v-58.3z" fill="url(#paint0_linear)"/><path d="M180.046 3.966H28.545v95.422h151.501V3.966z" fill="#E2C9E1"/><path d="M176.093 7.932v87.49H32.499V7.932h143.594zM184 0H24.591v103.354H184V0z" fill="#892885"/><path d="M137.822 129.768H73.616V140h64.206v-10.232z" fill="#E2C9E1"/><path d="M152.688 54.652c-24.513 30.697-64.286 30.697-88.798 0 24.512-30.618 64.285-30.618 88.798 0z" fill="#EDECEC"/><path d="M108.17 67.58c7.206 0 13.047-5.859 13.047-13.087s-5.841-13.088-13.047-13.088c-7.205 0-13.047 5.86-13.047 13.088 0 7.228 5.842 13.088 13.047 13.088z" fill="#F80A5B"/><path d="M118.449 103.354H93.542v26.493h24.907v-26.493z" fill="#E2C9E1"/><path opacity=".8" d="M118.45 129.847H93.542v-26.493h24.908v26.493z" fill="url(#paint1_linear)"/></g><defs><linearGradient id="paint0_linear" x1="0" y1="86.218" x2="165.469" y2="86.218" gradientUnits="userSpaceOnUse"><stop stop-color="#EBE4ED"/><stop offset="1" stop-color="#EBE4ED" stop-opacity="0"/></linearGradient><linearGradient id="paint1_linear" x1="106.008" y1="101.889" x2="106.008" y2="129.456" gradientUnits="userSpaceOnUse"><stop stop-color="#68296A"/><stop offset="1" stop-color="#68296A" stop-opacity="0"/></linearGradient><clipPath id="clip0"><path fill="#fff" d="M0 0h184v140H0z"/></clipPath></defs></svg>