<svg width="250" height="183" fill="none" xmlns="http://www.w3.org/2000/svg"><path d="M192.207 79.687h-37.253v70.377h37.253V79.687z" fill="#E2C9E1"/><path d="M123.037 0H0v112.022h123.037V0z" fill="url(#paint0_linear)"/><path d="M187.072 13.315H49.839v158.473h137.233V13.315z" fill="#E2C9E1"/><path opacity=".8" d="M174.285 38.442H82.662v8.209h91.623v-8.209z" fill="url(#paint1_linear)"/><path opacity=".8" d="M174.285 75.182H82.662v8.21h91.623v-8.21z" fill="url(#paint2_linear)"/><path opacity=".8" d="M148.208 111.322H82.662v8.209h65.546v-8.209z" fill="url(#paint3_linear)"/><path opacity=".8" d="M179.823 108.719h-31.615v13.715h31.615v-13.715z" fill="url(#paint4_linear)"/><path opacity=".8" d="M174.285 147.161H82.662v8.209h91.623v-8.209z" fill="url(#paint5_linear)"/><path d="M183.951 150.865c19.74 0 35.743-15.911 35.743-35.539 0-19.627-16.003-35.539-35.743-35.539-19.74 0-35.743 15.911-35.743 35.539s16.003 35.539 35.743 35.539z" stroke="#F80A5B" stroke-width="3" stroke-miterlimit="10"/><path d="M209.648 139.304l-3.489 3.468 26.271 26.121 3.488-3.469-26.27-26.12z" fill="#E2C9E1"/><path d="M209.625 139.352l-3.423 3.504 26.178 26.029 3.524-3.504-26.279-26.029z" fill="#F80A5B"/><path d="M219.928 148.32l-4.77 4.742 22.924 22.794 4.77-4.743-22.924-22.793z" fill="#E2C9E1"/><path d="M219.996 141.254l-11.982 11.813L238.119 183 250 171.087l-30.004-29.833z" fill="#892885"/><path d="M64.438 41.145l3.222 3.203 8.357-8.209M64.438 77.885l3.222 3.304 8.357-8.31M64.438 114.725l3.222 3.204 8.357-8.209M64.438 151.466l3.222 3.203 8.357-8.209" stroke="#EEE" stroke-width="3" stroke-miterlimit="10"/><defs><linearGradient id="paint0_linear" x1="0" y1="56.001" x2="123.087" y2="56.001" gradientUnits="userSpaceOnUse"><stop stop-color="#EBE4ED"/><stop offset="1" stop-color="#EBE4ED" stop-opacity="0"/></linearGradient><linearGradient id="paint1_linear" x1="82.655" y1="42.588" x2="163.575" y2="42.588" gradientUnits="userSpaceOnUse"><stop stop-color="#68296A"/><stop offset="1" stop-color="#68296A" stop-opacity="0"/></linearGradient><linearGradient id="paint2_linear" x1="82.655" y1="79.286" x2="163.575" y2="79.286" gradientUnits="userSpaceOnUse"><stop stop-color="#68296A"/><stop offset="1" stop-color="#68296A" stop-opacity="0"/></linearGradient><linearGradient id="paint3_linear" x1="82.655" y1="115.396" x2="152.472" y2="115.396" gradientUnits="userSpaceOnUse"><stop stop-color="#68296A"/><stop offset="1" stop-color="#68296A" stop-opacity="0"/></linearGradient><linearGradient id="paint4_linear" x1="199.789" y1="115.293" x2="149.706" y2="115.673" gradientUnits="userSpaceOnUse"><stop offset=".395" stop-color="#68296A"/><stop offset="1" stop-color="#68296A" stop-opacity="0"/></linearGradient><linearGradient id="paint5_linear" x1="82.655" y1="151.295" x2="163.575" y2="151.295" gradientUnits="userSpaceOnUse"><stop stop-color="#68296A"/><stop offset="1" stop-color="#68296A" stop-opacity="0"/></linearGradient></defs></svg>