<svg width="155" height="87" fill="none" xmlns="http://www.w3.org/2000/svg"><path d="M91.347 45.15v-7.153h8.835v6.521h4.701l-6.716 16.885-1.02-15.518h-5.8v-.735zM77.99 24.038a4.235 4.235 0 004.237-4.228c0-2.332-1.898-4.214-4.236-4.214a4.235 4.235 0 00-4.237 4.227c0 2.333 1.899 4.215 4.237 4.215zM81.117 63.968H63.253v7.437h17.864v-7.437zM69.518 41.206l-9.636-9.603-9.636 9.603 9.636 9.602 9.636-9.602z" fill="#F3EAF3"/><path d="M84.527 67.731h-6.084V51.942l6.084-6.973v22.762z" fill="#F80A5B"/><path d="M77.54 52.638v14.81h7.052V49.724l-7.053 2.913z" fill="#F80A5B"/><path d="M84.591 32.029h-.594L69.466 38.06v6.56l8.073-3.093v11.11l7.052-2.913V32.03z" fill="#521850"/></svg>