<svg width="120" height="120" fill="none" xmlns="http://www.w3.org/2000/svg"><path d="M60 120c33.137 0 60-26.863 60-60S93.137 0 60 0 0 26.863 0 60s26.863 60 60 60z" fill="url(#paint0_linear)"/><path d="M63.379 65.694a22.468 22.468 0 00-2.94-.188c-1.252 0-2.44.125-3.63.313 3.88 9.697.25 21.084-9.009 26.465-2.19 1.314-4.567 2.127-6.882 2.565 3.128 7.821 10.699 13.326 19.52 13.326 9.072 0 16.83-5.818 19.834-14.014-2.628-.376-5.194-1.252-7.634-2.628-9.009-5.38-12.7-16.33-9.26-25.84zM99.354 59.312a20.987 20.987 0 01-6.069 5.38c-9.01 5.256-20.271 3.004-26.715-4.754a23.618 23.618 0 00-1.627 2.44c-.626 1.063-1.126 2.19-1.564 3.316 10.26 1.439 18.144 10.323 18.144 21.084a21.94 21.94 0 01-1.251 7.32 20.865 20.865 0 0021.147-10.448c4.567-8.009 3.441-17.706-2.065-24.338z" fill="#E2C9E1"/><path d="M63.38 65.694c-3.442 9.51.25 20.521 9.259 25.776 2.44 1.44 5.005 2.253 7.633 2.628.813-2.252 1.251-4.755 1.251-7.32 0-10.761-7.883-19.645-18.144-21.084z" fill="#892885"/><path d="M63.191 54.182c.376.875.814 1.814 1.252 2.627a25.48 25.48 0 002.064 3.004c6.382-8.26 17.957-10.7 27.154-5.319 2.19 1.314 4.066 2.878 5.63 4.755 5.131-6.632 6.069-16.016 1.627-23.712-4.567-7.946-13.451-11.825-21.898-10.323a21.24 21.24 0 011.565 8.008c.062 10.511-7.508 19.27-17.394 20.96z" fill="#E2C9E1"/><path d="M93.723 54.557c-9.198-5.38-20.772-2.94-27.154 5.318 6.444 7.82 17.706 10.01 26.716 4.755a20.987 20.987 0 006.069-5.38c-1.565-1.815-3.442-3.442-5.631-4.693z" fill="#892885"/><path d="M56.622 54.307c.939.125 1.94.187 2.94.187 1.252 0 2.44-.125 3.63-.312-3.88-9.698-.25-21.085 9.009-26.466 2.19-1.313 4.567-2.127 6.882-2.565-3.128-7.82-10.699-13.326-19.52-13.326-9.072 0-16.83 5.819-19.834 14.015 2.628.375 5.193 1.25 7.633 2.627 9.01 5.38 12.701 16.33 9.26 25.84z" fill="#E2C9E1"/><path d="M63.191 54.181c9.885-1.751 17.456-10.448 17.456-20.959 0-2.815-.563-5.506-1.564-8.008-2.378.438-4.693 1.251-6.883 2.565-9.26 5.38-12.95 16.705-9.009 26.402z" fill="#892885"/><path d="M26.716 55.308c9.01-5.256 20.27-3.004 26.715 4.755a23.603 23.603 0 001.627-2.44c.626-1.064 1.126-2.19 1.564-3.316-10.26-1.44-18.144-10.324-18.144-21.085 0-2.565.438-5.005 1.251-7.32A20.864 20.864 0 0018.582 36.35c-4.567 7.946-3.44 17.644 2.065 24.338 1.627-2.127 3.691-3.941 6.069-5.38z" fill="#E2C9E1"/><path d="M56.622 54.307c3.441-9.51-.25-20.522-9.26-25.777-2.44-1.44-5.004-2.253-7.632-2.628-.813 2.252-1.252 4.755-1.252 7.32 0 10.761 7.884 19.646 18.144 21.085z" fill="#892885"/><path d="M56.81 65.819a33.855 33.855 0 00-1.252-2.628 25.481 25.481 0 00-2.065-3.003c-6.381 8.258-17.956 10.698-27.153 5.318-2.19-1.314-4.067-2.878-5.63-4.755-5.131 6.632-6.07 16.017-1.627 23.712 4.567 7.946 13.451 11.825 21.897 10.323a21.24 21.24 0 01-1.564-8.008c-.062-10.511 7.508-19.27 17.393-20.96z" fill="#E2C9E1"/><path d="M56.81 65.819c-9.886 1.751-17.457 10.448-17.457 20.959 0 2.815.564 5.506 1.565 8.008 2.377-.438 4.692-1.251 6.882-2.565 9.26-5.38 12.888-16.705 9.01-26.402zM26.278 65.443c9.197 5.381 20.772 2.941 27.154-5.318-6.445-7.82-17.706-10.01-26.716-4.755a20.986 20.986 0 00-6.069 5.381c1.565 1.814 3.442 3.441 5.631 4.692z" fill="#892885"/><defs><linearGradient id="paint0_linear" x1="20.993" y1="99.002" x2="95.982" y2="24.012" gradientUnits="userSpaceOnUse"><stop stop-color="#FDF5FF"/><stop offset="1" stop-color="#EBE4ED" stop-opacity="0"/></linearGradient></defs></svg>