<svg width="172" height="169" fill="none" xmlns="http://www.w3.org/2000/svg"><ellipse cx="86" cy="84.5" rx="85.5" ry="84.5" fill="url(#paint0_linear)"/><path fill="#E2C9E1" d="M33.995 67.077h103.129v68.82H33.995z"/><path d="M36.672 67.886l100.452 67.324M135.082 67.597L34.869 135.21" stroke="#892885" stroke-width="2"/><path d="M85.818 101.051l51.306-33.974H33.994l51.824 33.974z" fill="#68296A"/><path d="M79.806 36.74L33.995 67.078h103.128L90.81 36.716a10 10 0 00-11.004.025z" fill="#D4C1D5"/><path d="M79.806 36.74L33.995 67.078h103.128L90.81 36.716a10 10 0 00-11.004.025z" fill="url(#paint1_linear)"/><path fill-rule="evenodd" clip-rule="evenodd" d="M118.613 54.01H52.505v23.52l33.309 21.78 32.799-21.78V54.01z" fill="#EBE4ED"/><mask id="a" maskUnits="userSpaceOnUse" x="52" y="54" width="67" height="46"><path fill-rule="evenodd" clip-rule="evenodd" d="M118.613 54.01H52.505v23.52l33.309 21.78 32.799-21.78V54.01z" fill="#EBE4ED"/></mask><g mask="url(#a)"><path opacity=".8" d="M105.696 62.722H64.663v2.613h41.033v-2.613z" fill="url(#paint2_linear)"/><path opacity=".8" d="M105.696 78.402H64.663v2.613h41.033v-2.613z" fill="url(#paint3_linear)"/><path opacity=".8" d="M105.696 70.562H64.663v2.613h41.033v-2.613z" fill="url(#paint4_linear)"/><path opacity=".8" d="M105.696 94.266H64.663v2.614h41.033v-2.614z" fill="url(#paint5_linear)"/><path opacity=".8" d="M105.696 86.623H64.663v2.614h41.033v-2.614z" fill="url(#paint6_linear)"/></g><path fill="#F80A5B" d="M91.284 75.319l8.345-4.97 5.028 8.248-8.346 4.97zM43.25 54.01c2.678 0 4.848-1.95 4.848-4.355 0-2.406-2.17-4.356-4.848-4.356-2.677 0-4.848 1.95-4.848 4.356 0 2.405 2.17 4.355 4.848 4.355zM67.769 16.66l8.281 2.898-2.933 8.184-8.281-2.899zM111.691 37.347l8.685 2.256 8.345 1.92-10.628 6.327-6.402-10.503z"/><defs><linearGradient id="paint0_linear" x1="-111.884" y1="192.956" x2="102.926" y2="76.296" gradientUnits="userSpaceOnUse"><stop stop-color="#D4C1D5"/><stop offset="1" stop-color="#D4C1D5" stop-opacity="0"/></linearGradient><linearGradient id="paint1_linear" x1="85.818" y1="67.077" x2="85.818" y2="50.378" gradientUnits="userSpaceOnUse"><stop stop-color="#AE92AF"/><stop offset="1" stop-color="#AE92AF" stop-opacity="0"/></linearGradient><linearGradient id="paint2_linear" x1="64.66" y1="64.042" x2="100.9" y2="64.042" gradientUnits="userSpaceOnUse"><stop stop-color="#68296A"/><stop offset="1" stop-color="#68296A" stop-opacity="0"/></linearGradient><linearGradient id="paint3_linear" x1="64.66" y1="79.722" x2="100.9" y2="79.722" gradientUnits="userSpaceOnUse"><stop stop-color="#EBE4ED"/><stop offset="1" stop-color="#68296A" stop-opacity="0"/></linearGradient><linearGradient id="paint4_linear" x1="64.66" y1="71.882" x2="100.9" y2="71.882" gradientUnits="userSpaceOnUse"><stop stop-color="#68296A"/><stop offset="1" stop-color="#68296A" stop-opacity="0"/></linearGradient><linearGradient id="paint5_linear" x1="64.66" y1="95.586" x2="100.9" y2="95.586" gradientUnits="userSpaceOnUse"><stop stop-color="#68296A"/><stop offset="1" stop-color="#68296A" stop-opacity="0"/></linearGradient><linearGradient id="paint6_linear" x1="64.66" y1="87.943" x2="100.9" y2="87.943" gradientUnits="userSpaceOnUse"><stop stop-color="#68296A"/><stop offset="1" stop-color="#68296A" stop-opacity="0"/></linearGradient></defs></svg>