<svg width="76" height="76" fill="none" xmlns="http://www.w3.org/2000/svg"><path d="M38 76c20.987 0 38-17.013 38-38S58.987 0 38 0 0 17.013 0 38s17.013 38 38 38z" fill="url(#paint0_linear)"/><path d="M40.14 41.606a14.246 14.246 0 00-1.863-.12c-.792 0-1.545.08-2.298.2 2.457 6.14.159 13.353-5.706 16.76-1.387.832-2.892 1.348-4.358 1.625 1.98 4.953 6.775 8.44 12.362 8.44 5.746 0 10.66-3.685 12.561-8.876a13.77 13.77 0 01-4.834-1.664c-5.706-3.408-8.044-10.342-5.864-16.365zM62.924 37.564a13.292 13.292 0 01-3.843 3.408c-5.707 3.328-12.839 1.902-16.92-3.012-.357.476-.714.99-1.03 1.546a14.477 14.477 0 00-.991 2.1c6.498.911 11.491 6.538 11.491 13.353 0 1.625-.277 3.17-.792 4.636a13.214 13.214 0 0013.393-6.617c2.892-5.072 2.179-11.214-1.308-15.414z" fill="#E2C9E1"/><path d="M40.14 41.606c-2.18 6.023.158 12.997 5.864 16.325 1.546.912 3.17 1.427 4.835 1.664.515-1.426.792-3.011.792-4.636 0-6.815-4.993-12.442-11.491-13.353z" fill="#892885"/><path d="M40.021 34.315c.238.555.515 1.149.792 1.664.397.674.833 1.308 1.308 1.902 4.042-5.23 11.372-6.776 17.197-3.368 1.387.832 2.576 1.823 3.566 3.012 3.25-4.2 3.844-10.144 1.03-15.018-2.892-5.033-8.519-7.49-13.868-6.538.634 1.545.99 3.289.99 5.072.04 6.657-4.754 12.204-11.015 13.274z" fill="#E2C9E1"/><path d="M59.358 34.553c-5.825-3.408-13.156-1.863-17.197 3.368a13.249 13.249 0 0016.92 3.011 13.292 13.292 0 003.843-3.407 13.71 13.71 0 00-3.566-2.972z" fill="#892885"/><path d="M35.86 34.394c.595.08 1.229.119 1.863.119.792 0 1.545-.08 2.298-.198-2.457-6.142-.159-13.354 5.706-16.761 1.387-.832 2.892-1.348 4.359-1.625-1.982-4.953-6.776-8.44-12.363-8.44-5.746 0-10.66 3.685-12.561 8.876a13.77 13.77 0 014.834 1.664c5.706 3.408 8.044 10.342 5.864 16.365z" fill="#E2C9E1"/><path d="M40.02 34.315c6.262-1.11 11.056-6.617 11.056-13.274 0-1.784-.357-3.487-.99-5.072a12.954 12.954 0 00-4.36 1.624c-5.864 3.408-8.201 10.58-5.705 16.722z" fill="#892885"/><path d="M16.92 35.028c5.706-3.328 12.838-1.902 16.92 3.012.356-.476.713-.991 1.03-1.546.396-.673.713-1.387.99-2.1-6.498-.911-11.49-6.538-11.49-13.353 0-1.625.277-3.17.792-4.636a13.214 13.214 0 00-13.393 6.617c-2.893 5.032-2.18 11.174 1.307 15.414 1.03-1.347 2.338-2.496 3.844-3.408z" fill="#E2C9E1"/><path d="M35.86 34.394c2.18-6.023-.158-12.997-5.864-16.325-1.545-.912-3.17-1.427-4.834-1.665a13.725 13.725 0 00-.793 4.637c0 6.815 4.993 12.442 11.491 13.353z" fill="#892885"/><path d="M35.98 41.685a21.45 21.45 0 00-.793-1.664 16.116 16.116 0 00-1.308-1.902c-4.042 5.23-11.372 6.776-17.197 3.368-1.387-.832-2.576-1.823-3.566-3.012-3.25 4.2-3.844 10.144-1.03 15.018 2.892 5.032 8.519 7.49 13.868 6.538a13.452 13.452 0 01-.99-5.072c-.04-6.657 4.755-12.204 11.015-13.274z" fill="#E2C9E1"/><path d="M35.98 41.685c-6.262 1.11-11.056 6.617-11.056 13.274 0 1.783.356 3.487.99 5.072a12.95 12.95 0 004.36-1.624c5.864-3.408 8.162-10.58 5.705-16.722zM16.642 41.447c5.825 3.408 13.156 1.863 17.198-3.368a13.249 13.249 0 00-16.92-3.011 13.292 13.292 0 00-3.844 3.407c.99 1.15 2.18 2.18 3.566 2.972z" fill="#892885"/><defs><linearGradient id="paint0_linear" x1="13.296" y1="62.701" x2="60.789" y2="15.208" gradientUnits="userSpaceOnUse"><stop stop-color="#EBE4ED"/><stop offset="1" stop-color="#EBE4ED" stop-opacity="0"/></linearGradient></defs></svg>