<svg width="16" height="12" xmlns="http://www.w3.org/2000/svg"><path d="M14.247.167H1.753A1.25 1.25 0 00.5 1.417v9.166c0 .69.56 1.25 1.253 1.25h12.494a1.25 1.25 0 001.253-1.25V1.417c0-.69-.56-1.25-1.253-1.25zM1.91 1.417H14.09c.086 0 .156.07.156.156v1.094H1.753V1.573c0-.086.07-.156.156-.156zm12.182 9.166H1.91a.157.157 0 01-.156-.156V6h12.494v4.427c0 .086-.07.156-.156.156zM5.5 7.98v1.042c0 .172-.14.312-.313.312H3.313A.313.313 0 013 9.021V7.979c0-.172.14-.312.313-.312h1.874c.172 0 .313.14.313.312zm5 0v1.042c0 .172-.14.312-.313.312H6.646a.313.313 0 01-.313-.312V7.979c0-.172.141-.312.313-.312h3.542c.171 0 .312.14.312.312z"/></svg>