<svg width="155" height="87" fill="none" xmlns="http://www.w3.org/2000/svg"><path d="M76.97 24.038a4.234 4.234 0 004.237-4.228c0-2.332-1.899-4.214-4.237-4.214a4.235 4.235 0 00-4.237 4.227 4.215 4.215 0 004.237 4.215zM80.096 63.968H62.232v7.437h17.864v-7.437zM68.485 41.218l-9.636-9.602-9.636 9.602 9.636 9.603 9.636-9.603zM105.878 26.886H76.971l6.91 6.883-16.494 16.433 15.28 15.235L99.15 49.004l6.716 6.611V26.886h.013z" fill="#F3EAF3"/><path d="M90.882 51.014c2.248-2.5 3.85-5.49 3.85-8.855 0-6.34-4.547-10.555-11.548-10.555S72.127 35.87 71.262 42.108l6.368 1.07c.426-3.042 2.196-5.066 5.296-5.066 2.725 0 4.65 1.65 4.65 3.996 0 1.173-.956 2.99-2.403 4.743l-1.899 2.281 4.947 4.937 2.661-3.055z" fill="#521850"/><path d="M71.481 67.01h23.56v-6.123l-.439-.438H82.654l5.555-6.38-4.948-4.937-11.78 14.088v3.79z" fill="#F80A5B"/></svg>