<svg width="155" height="87" fill="none" xmlns="http://www.w3.org/2000/svg"><path d="M68 60c13.444 0 24.343-10.864 24.343-24.265 0-13.4-10.899-24.264-24.343-24.264-13.443 0-24.342 10.864-24.342 24.264C43.658 49.135 54.557 60 68 60z" fill="#F3EAF3"/><path fill-rule="evenodd" clip-rule="evenodd" d="M74.435 55.967h10.203v11.756H74.435V55.967zm2.583 2.578v6.6h5.037v-6.6h-5.037z" fill="#F80A5B"/><path fill-rule="evenodd" clip-rule="evenodd" d="M58.665 26.429h41.742v32.116H58.665V26.43zm2.583 2.578v26.96h36.576v-26.96H61.248z" fill="#521850"/><path d="M75.62 41.01v-4.22h5.08v3.798h2.646l-3.81 9.706-.53-8.968H75.62v-.316z" fill="#F80A5B"/><path fill-rule="evenodd" clip-rule="evenodd" d="M92.978 67.723H66.096v-2.578h26.882v2.578z" fill="#521850"/></svg>