<svg width="156" height="87" fill="none" xmlns="http://www.w3.org/2000/svg"><path d="M92.35 65.45V61.35h4.29v3.738h2.272l-3.268 9.666-.49-8.88h-2.816v-.425h.013zM72.82 20.687a4.235 4.235 0 004.237-4.228c0-2.333-1.898-4.214-4.236-4.214a4.235 4.235 0 00-4.237 4.227 4.215 4.215 0 004.237 4.215zM108.497 44.905a2.532 2.532 0 002.531-2.526 2.533 2.533 0 00-5.063 0 2.533 2.533 0 002.532 2.526zM93.28 54.61c6.69-6.676 6.69-17.49.013-24.154L69.074 54.623c6.678 6.664 17.515 6.65 24.206-.013zM75.946 60.616H58.082v7.437h17.864v-7.437zM64.334 37.867l-9.636-9.602-9.636 9.602 9.636 9.603 9.636-9.603zM99.43 15.79h-8.836l2.106 2.1-5.038 5.027 4.676 4.652 5.038-5.026 2.053 2.023V15.79z" fill="#F3EAF3"/><path d="M83.231 46.18l-4.637 3.52c2.157.721 3.514 2.397 3.514 4.575 0 2.823-2.403 4.743-6.097 4.743-2.57 0-4.599-1.276-6.252-3.519l-4.921 3.79c2.506 3.995 6.523 6.135 11.496 6.135 7.595 0 12.93-4.318 12.93-10.608 0-4.047-2.339-7.218-6.033-8.635z" fill="#F80A5B"/><path d="M83.063 46.116c.439-.219.852-.477 1.24-.747l.439-.335c1.834-1.483 2.92-3.545 2.92-5.852.102-5.916-4.703-9.654-10.85-9.654-4.496 0-8.125 2.024-10.58 4.911l3.85 4.37c1.33-1.702 3.745-2.823 5.928-2.823 2.57 0 4.38 1.327 4.495 3.467.155 2.449-2.028 4.485-5.825 4.485h-1.976v5.388h3.358c.93 0 1.782.141 2.532.386l4.637-3.518c-.052-.026-.116-.052-.168-.078z" fill="#521850"/></svg>