<svg width="15" height="13" viewBox="0 0 15 13" fill="none" xmlns="http://www.w3.org/2000/svg">
<path d="M8.8125 10.6281H7.0625C6.81641 10.6281 6.625 10.8468 6.625 11.0656V11.9406C6.625 12.1866 6.81641 12.3781 7.0625 12.3781H8.8125C9.03125 12.3781 9.25 12.1866 9.25 11.9406V11.0656C9.25 10.8468 9.03125 10.6281 8.8125 10.6281ZM5.3125 8.87805H4V0.565552C4 0.346802 3.78125 0.128052 3.5625 0.128052H2.6875C2.44141 0.128052 2.25 0.346802 2.25 0.565552V8.87805H0.9375C0.527344 8.87805 0.335938 9.37024 0.609375 9.64368L2.79688 12.2687C2.87891 12.3507 2.98828 12.3781 3.125 12.3781C3.23438 12.3781 3.34375 12.3507 3.42578 12.2687L5.61328 9.64368C5.88672 9.37024 5.69531 8.87805 5.3125 8.87805ZM12.3125 3.62805H7.0625C6.81641 3.62805 6.625 3.8468 6.625 4.06555V4.94055C6.625 5.18665 6.81641 5.37805 7.0625 5.37805H12.3125C12.5312 5.37805 12.75 5.18665 12.75 4.94055V4.06555C12.75 3.8468 12.5312 3.62805 12.3125 3.62805ZM10.5625 7.12805H7.0625C6.81641 7.12805 6.625 7.3468 6.625 7.56555V8.44055C6.625 8.68665 6.81641 8.87805 7.0625 8.87805H10.5625C10.7812 8.87805 11 8.68665 11 8.44055V7.56555C11 7.3468 10.7812 7.12805 10.5625 7.12805ZM14.0625 0.128052H7.0625C6.81641 0.128052 6.625 0.346802 6.625 0.565552V1.44055C6.625 1.68665 6.81641 1.87805 7.0625 1.87805H14.0625C14.2812 1.87805 14.5 1.68665 14.5 1.44055V0.565552C14.5 0.346802 14.2812 0.128052 14.0625 0.128052Z" fill="#B6B3B4"/>
</svg>
