<svg width="222" height="183" fill="none" xmlns="http://www.w3.org/2000/svg"><g clip-path="url(#clip0)"><g clip-path="url(#clip1)"><path d="M150.25 0H.15v150.1h150.1V0z" fill="url(#paint0_linear)"/><path d="M212.15 73.2c5.357 0 9.7-4.343 9.7-9.7 0-5.357-4.343-9.7-9.7-9.7-5.357 0-9.7 4.343-9.7 9.7 0 5.357 4.343 9.7 9.7 9.7z" fill="#521850"/><path d="M122.85 174.8c39.544 0 71.6-32.056 71.6-71.6s-32.056-71.6-71.6-71.6-71.6 32.056-71.6 71.6 32.056 71.6 71.6 71.6z" fill="#E2C9E1"/><path d="M163.15 162.5a4.8 4.8 0 100-9.6 4.8 4.8 0 000 9.6zM183.05 150.7a4.8 4.8 0 100-9.6 4.8 4.8 0 000 9.6zM162.65 138.9a4.8 4.8 0 100-9.6 4.8 4.8 0 000 9.6zM182.75 127.5a4.8 4.8 0 100-9.6 4.8 4.8 0 000 9.6z" fill="#F80A5B"/><path d="M162.45 116.2a4.8 4.8 0 100-9.6 4.8 4.8 0 000 9.6z" fill="#521850"/><path d="M142.55 128a4.8 4.8 0 100-9.6 4.8 4.8 0 000 9.6zM142.85 151.2a4.8 4.8 0 100-9.6 4.8 4.8 0 000 9.6zM162.75 182.7a4.8 4.8 0 100-9.6 4.8 4.8 0 000 9.6z" fill="#F80A5B"/><path d="M184.45 176.9a4.8 4.8 0 100-9.6 4.8 4.8 0 000 9.6z" fill="#521850"/><path d="M200.35 161a4.8 4.8 0 100-9.6 4.8 4.8 0 000 9.6zM206.15 139.3a4.8 4.8 0 100-9.6 4.8 4.8 0 000 9.6zM200.35 117.6a4.8 4.8 0 100-9.6 4.8 4.8 0 000 9.6z" fill="#F80A5B"/><path d="M184.45 101.8a4.8 4.8 0 100-9.6 4.8 4.8 0 000 9.6z" fill="#521850"/><path d="M162.75 95.9a4.8 4.8 0 100-9.6 4.8 4.8 0 000 9.6zM141.05 101.8a4.8 4.8 0 100-9.6 4.8 4.8 0 000 9.6z" fill="#F80A5B"/><path d="M125.25 117.6a4.8 4.8 0 100-9.6 4.8 4.8 0 000 9.6z" fill="#521850"/><path d="M119.35 139.3a4.8 4.8 0 100-9.6 4.8 4.8 0 000 9.6z" fill="#F80A5B"/><path d="M125.25 161a4.8 4.8 0 100-9.6 4.8 4.8 0 000 9.6z" fill="#521850"/><path d="M141.05 176.9a4.8 4.8 0 100-9.6 4.8 4.8 0 000 9.6z" fill="#F80A5B"/></g></g><defs><clipPath id="clip0"><path fill="#fff" transform="translate(.15)" d="M0 0h221.7v182.7H0z"/></clipPath><clipPath id="clip1"><path fill="#fff" transform="translate(.15)" d="M0 0h221.7v182.7H0z"/></clipPath><linearGradient id="paint0_linear" x1="-1.716" y1="4.901" x2="124.205" y2="119.741" gradientUnits="userSpaceOnUse"><stop stop-color="#EBE4ED"/><stop offset="1" stop-color="#EBE4ED" stop-opacity="0"/></linearGradient></defs></svg>