<svg width="77" height="15" fill="none" xmlns="http://www.w3.org/2000/svg"><path d="M14.6 4.127h3.142c2.31 0 3.657 1.771 3.657 4.08 0 2.299-1.347 4.042-3.657 4.042h-3.143V4.127zm3.133 7.02c1.617 0 2.45-1.282 2.45-2.94 0-1.65-.832-2.978-2.45-2.978h-1.927v5.908h1.927v.01zM22.605 4.749c0-.424.365-.745.786-.745.43 0 .786.32.786.745 0 .424-.356.744-.786.744-.421-.01-.786-.32-.786-.744zm.215 1.997h1.15v5.512h-1.15V6.746zM31.097 6.746v4.683c0 2.563-1.169 3.571-3.011 3.571a2.806 2.806 0 01-2.507-1.526l.973-.48c.309.593.935.932 1.534.932 1.15 0 1.861-.66 1.861-2.403v-.075c-.374.603-1.16.923-1.89.923-1.486 0-2.711-1.13-2.711-2.883 0-1.762 1.225-2.864 2.703-2.864.757 0 1.524.31 1.898.923v-.8h1.15zm-1.16 2.742c0-1.112-.897-1.762-1.748-1.762-.936 0-1.702.716-1.702 1.762 0 1.027.757 1.79 1.702 1.79.935 0 1.749-.678 1.749-1.79zM32.594 4.749c0-.424.365-.745.785-.745.43 0 .786.32.786.745 0 .424-.355.744-.786.744-.42-.01-.785-.32-.785-.744zm.215 1.997h1.15v5.512h-1.15V6.746zM38.449 7.717h-1.17v4.541h-1.15V7.717h-.982v-.97h.982V4.682h1.15v2.063h1.17v.97zM44.846 6.746v5.512h-1.15v-.829c-.365.622-1.151.942-1.89.942-1.487 0-2.712-1.13-2.712-2.883 0-1.762 1.225-2.864 2.703-2.864.776 0 1.534.31 1.898.933v-.81h1.15zm-1.16 2.742c0-1.112-.898-1.762-1.749-1.762-.935 0-1.702.716-1.702 1.762 0 1.027.758 1.79 1.702 1.79.926 0 1.749-.678 1.749-1.79zM46.557 3.769h1.141v8.499h-1.15v-8.5h.01zM49.503 8.15c0-2.299 1.815-4.164 4.097-4.164 1.272 0 2.385.565 3.105 1.46l-.889.716a2.78 2.78 0 00-2.198-1.046c-1.636 0-2.908 1.357-2.908 3.034 0 1.668 1.253 3.034 2.908 3.034.889 0 1.684-.414 2.198-1.046l.889.716c-.71.895-1.824 1.46-3.105 1.46-2.273 0-4.097-1.855-4.097-4.164zM62.962 6.69v5.512h-1.15v-.839c-.319.67-1.198.952-1.768.952-1.384 0-2.217-.905-2.198-2.478V6.69h1.15V9.76c0 .896.543 1.414 1.244 1.414.71 0 1.58-.405 1.58-1.536v-2.95h1.142zM70.434 9.441c0 1.743-1.243 2.883-2.712 2.883-.739 0-1.534-.32-1.898-.942v.83h-1.15v-8.51h1.15V7.5c.364-.622 1.122-.933 1.898-.933 1.478.01 2.713 1.112 2.713 2.874zm-1.16-.01c0-1.036-.748-1.761-1.701-1.761-.842 0-1.75.65-1.75 1.762 0 1.111.833 1.79 1.75 1.79.954 0 1.702-.763 1.702-1.79zM76.972 9.912h-4.358c.15.895.804 1.329 1.702 1.329.636 0 1.225-.274 1.534-.782l.916.461c-.477.924-1.468 1.395-2.506 1.395-1.58 0-2.825-1.14-2.825-2.893 0-1.752 1.263-2.855 2.825-2.855 1.562 0 2.74 1.112 2.74 2.846-.01.16-.019.32-.028.5zM75.84 8.98c-.103-.857-.739-1.328-1.58-1.328-.842 0-1.478.424-1.637 1.328h3.217zM3.03 3.053H0v9.139h9.081V6.096h-3.03V9.14h-3.02V6.096h3.02V3.053h-3.02zM9.081 0h-3.03v3.053h3.03V0z" fill="#7F797B"/></svg>