<svg width="168" height="108" fill="none" xmlns="http://www.w3.org/2000/svg"><path fill="#D1CFD0" d="M0 0h168v108H0z"/><path d="M105 54c0-11.592-9.408-21-21-21s-21 9.408-21 21 9.408 21 21 21 21-9.408 21-21zM84 35.121c10.437 0 18.879 8.442 18.879 18.879 0 10.437-8.442 18.879-18.879 18.879-10.437 0-18.879-8.442-18.879-18.879 0-10.437 8.442-18.879 18.879-18.879zm-4.179 29.001l-6.405-17.241c1.029-.063 2.205-.168 2.205-.168.903-.105.798-2.121-.126-2.079 0 0-2.709.21-4.473.21-.315 0-.693 0-1.092-.021 3.024-4.557 8.19-7.56 14.07-7.56 4.389 0 8.379 1.659 11.361 4.389-1.26-.168-3.045.735-3.045 2.982 0 1.386.798 2.562 1.659 3.948.651 1.134 1.05 2.562 1.05 4.641 0 2.814-2.667 9.408-2.667 9.408l-5.691-15.75c1.008-.063 1.575-.336 1.575-.336.903-.105.798-2.31-.105-2.268 0 0-2.73.231-4.494.231-1.638 0-4.431-.231-4.431-.231-.903-.042-1.008 2.226-.105 2.268l1.764.168 2.352 6.384-3.402 11.025zm12.642 4.515L97.944 54s1.407-3.549.819-8.001c1.323 2.394 1.974 5.082 1.974 8.001 0 6.216-3.276 11.718-8.274 14.637zm-23.835-21.42l8.022 22.008c-5.607-2.73-9.387-8.568-9.387-15.225 0-2.436.42-4.683 1.365-6.783zm15.645 9.513l4.809 13.125a15.023 15.023 0 01-5.082.882c-1.512 0-2.961-.231-4.326-.63l4.599-13.377z" fill="#484043"/></svg>