<svg width="92" height="70" fill="none" xmlns="http://www.w3.org/2000/svg"><g clip-path="url(#clip0)"><path d="M82.749 28.555H0v29.15h82.749v-29.15z" fill="#EBE4ED"/><path d="M90.023 1.983h-75.75v47.711h75.75V1.983z" fill="#E2C9E1"/><path d="M88.046 3.966v43.745H16.25V3.966h71.797zM92 0H12.296v51.677H92V0z" fill="#F80A5B"/><path d="M68.911 64.884H36.808V70H68.91v-5.116z" fill="#E2C9E1"/><path d="M76.344 27.326c-12.256 15.348-32.143 15.348-44.399 0 12.256-15.309 32.143-15.309 44.399 0z" fill="#EDECEC"/><path d="M54.085 33.79c3.603 0 6.523-2.93 6.523-6.543 0-3.615-2.92-6.544-6.523-6.544-3.603 0-6.523 2.93-6.523 6.544 0 3.614 2.92 6.544 6.523 6.544zM59.225 51.479H46.77v13.405h12.454V51.479z" fill="#F80A5B"/><path d="M82.749 28.555H0v29.15h82.749v-29.15z" fill="url(#paint0_linear)"/><path d="M90.023 1.983h-75.75v47.711h75.75V1.983z" fill="#E2C9E1"/><path d="M88.046 3.966v43.745H16.25V3.966h71.797zM92 0H12.296v51.677H92V0z" fill="#892885"/><path d="M68.911 64.884H36.808V70H68.91v-5.116z" fill="#E2C9E1"/><path d="M76.344 27.326c-12.256 15.348-32.143 15.348-44.399 0 12.256-15.309 32.143-15.309 44.399 0z" fill="#EDECEC"/><path d="M54.085 33.79c3.603 0 6.523-2.93 6.523-6.543 0-3.615-2.92-6.544-6.523-6.544-3.603 0-6.523 2.93-6.523 6.544 0 3.614 2.92 6.544 6.523 6.544z" fill="#F80A5B"/><path d="M59.225 51.677H46.77v13.247h12.454V51.677z" fill="#E2C9E1"/><path opacity=".8" d="M59.225 64.924H46.77V51.677h12.454v13.247z" fill="url(#paint1_linear)"/></g><defs><linearGradient id="paint0_linear" x1="0" y1="43.109" x2="82.734" y2="43.109" gradientUnits="userSpaceOnUse"><stop stop-color="#EBE4ED"/><stop offset="1" stop-color="#EBE4ED" stop-opacity="0"/></linearGradient><linearGradient id="paint1_linear" x1="53.004" y1="50.944" x2="53.004" y2="64.728" gradientUnits="userSpaceOnUse"><stop stop-color="#68296A"/><stop offset="1" stop-color="#68296A" stop-opacity="0"/></linearGradient><clipPath id="clip0"><path fill="#fff" d="M0 0h92v70H0z"/></clipPath></defs></svg>